<svg xmlns="http://www.w3.org/2000/svg" class="gun-art" viewBox="0 0 340 120"><polygon points="6,52 40,48 66,48 66,78 40,82 6,78"/><rect x="66" y="46" width="94" height="30"/><rect x="74" y="38" width="78" height="9"/><rect x="152" y="36" width="12" height="10"/><rect x="164" y="42" width="92" height="10"/><rect x="252" y="38" width="14" height="24"/><rect x="166" y="56" width="76" height="16" rx="3"/><rect x="242" y="58" width="84" height="9"/><polygon points="314,38 326,38 326,58 314,58"/><polygon points="98,76 120,76 114,112 90,112"/><path d="M128,76 C126,92 128,104 138,114 L162,108 C154,98 154,86 156,76 Z"/><rect x="122" y="76" width="6" height="10"/></svg>
